<svg width="21" height="21" viewBox="0 0 21 21" fill="none" xmlns="http://www.w3.org/2000/svg">
<path d="M6.67126 10.0514C6.67126 8.20885 8.16408 6.71481 10.0061 6.71481C11.848 6.71481 13.3417 8.20885 13.3417 10.0514C13.3417 11.8939 11.848 13.3879 10.0061 13.3879C8.16408 13.3879 6.67126 11.8939 6.67126 10.0514ZM4.8681 10.0514C4.8681 12.8899 7.16836 15.1908 10.0061 15.1908C12.8438 15.1908 15.144 12.8899 15.144 10.0514C15.144 7.21285 12.8438 4.91193 10.0061 4.91193C7.16836 4.91193 4.8681 7.21285 4.8681 10.0514ZM14.1467 4.70814C14.1466 4.94569 14.2169 5.17793 14.3488 5.3755C14.4807 5.57307 14.6681 5.72709 14.8875 5.81808C15.1068 5.90908 15.3483 5.93296 15.5812 5.88671C15.8141 5.84046 16.0281 5.72615 16.1961 5.55825C16.3641 5.39034 16.4786 5.17638 16.525 4.94341C16.5714 4.71045 16.5477 4.46894 16.4569 4.24944C16.3661 4.02994 16.2123 3.84229 16.0149 3.71024C15.8175 3.57819 15.5854 3.50765 15.3479 3.50756H15.3474C15.0291 3.50771 14.7239 3.63423 14.4987 3.85934C14.2736 4.08444 14.147 4.38973 14.1467 4.70814ZM5.96364 18.1984C4.98809 18.1539 4.45785 17.9914 4.10548 17.8541C3.63832 17.6721 3.305 17.4555 2.95455 17.1054C2.6041 16.7553 2.38717 16.4222 2.2061 15.9549C2.06874 15.6026 1.90624 15.0721 1.8619 14.0962C1.81339 13.0412 1.8037 12.7243 1.8037 10.0514C1.8037 7.3786 1.81419 7.06255 1.8619 6.00666C1.90632 5.03083 2.07002 4.50132 2.2061 4.14797C2.38797 3.68067 2.60458 3.34726 2.95455 2.9967C3.30452 2.64615 3.63752 2.42916 4.10548 2.24804C4.45769 2.11064 4.98809 1.94809 5.96364 1.90373C7.01835 1.85521 7.33518 1.84552 10.0061 1.84552C12.6769 1.84552 12.9941 1.85601 14.0497 1.90373C15.0252 1.94817 15.5546 2.11192 15.9078 2.24804C16.375 2.42916 16.7083 2.64663 17.0588 2.9967C17.4092 3.34678 17.6253 3.68067 17.8072 4.14797C17.9446 4.50028 18.1071 5.03083 18.1514 6.00666C18.1999 7.06255 18.2096 7.3786 18.2096 10.0514C18.2096 12.7243 18.1999 13.0403 18.1514 14.0962C18.107 15.0721 17.9437 15.6025 17.8072 15.9549C17.6253 16.4222 17.4087 16.7556 17.0588 17.1054C16.7088 17.4551 16.375 17.6721 15.9078 17.8541C15.5556 17.9915 15.0252 18.154 14.0497 18.1984C12.995 18.2469 12.6781 18.2566 10.0061 18.2566C7.33398 18.2566 7.01803 18.2469 5.96364 18.1984ZM5.88079 0.103094C4.81559 0.151617 4.08771 0.320567 3.45205 0.567987C2.79374 0.823494 2.23644 1.16628 1.67955 1.72245C1.12265 2.27863 0.780849 2.83696 0.525416 3.49547C0.278068 4.13171 0.109166 4.8594 0.0606574 5.9249C0.0113478 6.99209 6.10352e-05 7.33328 6.10352e-05 10.0514C6.10352e-05 12.7695 0.0113478 13.1106 0.0606574 14.1778C0.109166 15.2434 0.278068 15.971 0.525416 16.6073C0.780849 17.2654 1.12273 17.8244 1.67955 18.3803C2.23636 18.9362 2.79374 19.2785 3.45205 19.5348C4.08891 19.7822 4.81559 19.9511 5.88079 19.9996C6.94823 20.0482 7.28875 20.0603 10.0061 20.0603C12.7234 20.0603 13.0645 20.049 14.1313 19.9996C15.1966 19.9511 15.924 19.7822 16.5601 19.5348C17.218 19.2785 17.7757 18.9365 18.3326 18.3803C18.8895 17.8241 19.2306 17.2654 19.4867 16.6073C19.7341 15.971 19.9038 15.2433 19.9515 14.1778C20 13.1098 20.0113 12.7695 20.0113 10.0514C20.0113 7.33328 20 6.99209 19.9515 5.9249C19.903 4.85932 19.7341 4.13131 19.4867 3.49547C19.2306 2.83736 18.8886 2.27951 18.3326 1.72245C17.7766 1.1654 17.218 0.823494 16.5609 0.567987C15.924 0.320567 15.1965 0.150817 14.1321 0.103094C13.0653 0.0545712 12.7242 0.0424805 10.0069 0.0424805C7.28955 0.0424805 6.94823 0.0537705 5.88079 0.103094Z" fill="white"/>
</svg>
