<svg width="80" height="40" viewBox="0 0 80 40" fill="none" xmlns="http://www.w3.org/2000/svg">
<path d="M9.98813 26.9496C11.2694 26.9496 11.9097 27.6502 11.909 29.0512C11.909 30.4221 11.2726 31.1191 9.98813 31.1191H4.61064V35.4478H11.4932C12.773 35.4478 13.4133 36.1483 13.414 37.5494C13.414 38.9202 12.7776 39.6183 11.4932 39.6183H2.43313C0.73609 39.6183 0 38.8801 0 37.1993V21.3482C0 19.661 0.73609 18.9292 2.43313 18.9292H11.333C12.6143 18.9292 13.2546 19.6293 13.2539 21.0297C13.2539 22.4006 12.6175 23.0986 11.333 23.0986H4.61064V26.9496H9.98813Z" fill="white"/>
<path d="M24.7439 35.703C25.8639 35.703 26.7591 35.4805 27.6564 34.9395C28.2928 34.5567 28.7457 34.2077 29.2569 34.2077C30.3176 34.2077 31.339 35.5121 31.339 36.4991C31.339 37.3258 30.6337 38.0903 29.5772 38.6945C28.1984 39.4907 26.408 39.9673 24.4235 39.9673C18.7883 39.9673 14.4662 36.0847 14.4662 29.2115C14.4662 22.3689 18.7565 18.5812 24.3917 18.5812C26.4727 18.5812 28.297 19.0905 29.5772 19.8223C30.6379 20.4276 31.339 21.1932 31.339 21.9872C31.339 23.0058 30.2497 24.3419 29.1615 24.3419C28.6492 24.3419 28.2005 23.9918 27.561 23.6101C26.7602 23.1007 25.6719 22.8466 24.5837 22.8466C21.7984 22.8466 19.4608 24.692 19.4608 29.1799C19.4661 33.6973 21.8621 35.703 24.7439 35.703Z" fill="white"/>
<path d="M42.4365 18.5474C48.6795 18.5474 52.7132 22.6526 52.7132 29.2737C52.7132 35.8949 48.6827 40 42.4365 40C36.1904 40 32.1599 35.8938 32.1599 29.2737C32.1599 22.6536 36.1936 18.5474 42.4365 18.5474ZM42.4365 35.7979C45.6058 35.7979 47.7196 33.4432 47.7196 29.2737C47.7196 25.1043 45.6058 22.7485 42.4365 22.7485C39.2673 22.7485 37.1545 25.1043 37.1545 29.2737C37.1545 33.4432 39.2673 35.7979 42.4365 35.7979Z" fill="white"/>
<path d="M39.4752 4.42886C34.2918 7.57335 33.3118 12.9702 33.9174 17.4402C36.2774 15.7752 42.1162 17.532 46.9189 14.5383C52.903 10.8085 53.2997 3.57156 52.2783 0C49.6118 3.60847 45.1985 0.956423 39.4752 4.42886Z" fill="white"/>
<path d="M28.7733 8.89779C32.1111 10.9762 32.7592 14.514 32.3795 17.4392C30.8596 16.3404 27.1176 17.4719 24.0258 15.4947C20.1714 13.0314 19.8893 8.29041 20.5352 5.9526C22.2651 8.32626 25.0875 6.60427 28.7733 8.89779Z" fill="white"/>
<path d="M58.8196 25.5874C58.3757 25.5874 57.9762 25.5117 57.621 25.3604C57.2659 25.2028 56.9869 24.9821 56.7839 24.6983C56.581 24.4146 56.4795 24.0835 56.4795 23.7052H57.64C57.6654 23.989 57.7764 24.2223 57.973 24.4051C58.1759 24.588 58.4581 24.6794 58.8196 24.6794C59.1937 24.6794 59.4854 24.5911 59.6947 24.4146C59.904 24.2317 60.0086 23.9984 60.0086 23.7147C60.0086 23.494 59.942 23.3143 59.8089 23.1756C59.682 23.0368 59.5203 22.9297 59.3237 22.854C59.1335 22.7783 58.8671 22.6964 58.5247 22.6081C58.0935 22.4946 57.7415 22.3811 57.4688 22.2676C57.2025 22.1478 56.9742 21.9649 56.7839 21.719C56.5937 21.4731 56.4986 21.1452 56.4986 20.7354C56.4986 20.357 56.5937 20.026 56.7839 19.7423C56.9742 19.4585 57.2405 19.241 57.583 19.0897C57.9254 18.9383 58.3218 18.8627 58.772 18.8627C59.4125 18.8627 59.9357 19.0234 60.3416 19.345C60.7538 19.6603 60.982 20.0954 61.0264 20.6502H59.8279C59.8089 20.4106 59.6947 20.2057 59.4854 20.0355C59.2762 19.8652 59.0003 19.7801 58.6579 19.7801C58.3471 19.7801 58.0935 19.8589 57.8969 20.0166C57.7003 20.1742 57.602 20.4012 57.602 20.6975C57.602 20.8993 57.6622 21.0664 57.7827 21.1988C57.9096 21.3249 58.0681 21.4258 58.2584 21.5015C58.4486 21.5771 58.7086 21.6591 59.0384 21.7474C59.4759 21.8672 59.8311 21.987 60.1037 22.1068C60.3828 22.2266 60.6174 22.4126 60.8077 22.6648C61.0042 22.9107 61.1025 23.2418 61.1025 23.6579C61.1025 23.9921 61.0106 24.3074 60.8267 24.6037C60.6491 24.9001 60.3859 25.1397 60.0372 25.3226C59.6947 25.4991 59.2889 25.5874 58.8196 25.5874Z" fill="white"/>
<path d="M65.0931 20.2246C65.4926 20.2246 65.8478 20.3098 66.1585 20.48C66.4756 20.6502 66.7229 20.9025 66.9005 21.2367C67.0844 21.5708 67.1763 21.9744 67.1763 22.4473V25.5212H66.1014V22.6081C66.1014 22.1415 65.9841 21.7852 65.7495 21.5393C65.5148 21.2871 65.1946 21.161 64.7887 21.161C64.3829 21.161 64.0594 21.2871 63.8185 21.5393C63.5838 21.7852 63.4665 22.1415 63.4665 22.6081V25.5212H62.3821V18.5222H63.4665V20.9151C63.6504 20.6944 63.8819 20.5241 64.1609 20.4043C64.4463 20.2845 64.757 20.2246 65.0931 20.2246Z" fill="white"/>
<path d="M70.833 25.6063C70.3384 25.6063 69.8913 25.496 69.4918 25.2753C69.0922 25.0483 68.7783 24.733 68.55 24.3295C68.3217 23.9196 68.2076 23.4467 68.2076 22.9107C68.2076 22.3811 68.3249 21.9113 68.5595 21.5015C68.7942 21.0916 69.1144 20.7764 69.5203 20.5557C69.9262 20.335 70.3796 20.2246 70.8806 20.2246C71.3815 20.2246 71.835 20.335 72.2408 20.5557C72.6467 20.7764 72.9669 21.0916 73.2016 21.5015C73.4362 21.9113 73.5535 22.3811 73.5535 22.9107C73.5535 23.4404 73.433 23.9101 73.1921 24.32C72.9511 24.7299 72.6213 25.0483 72.2028 25.2753C71.7906 25.496 71.334 25.6063 70.833 25.6063ZM70.833 24.67C71.112 24.67 71.372 24.6037 71.613 24.4713C71.8603 24.3389 72.0601 24.1403 72.2123 23.8755C72.3645 23.6106 72.4406 23.2891 72.4406 22.9107C72.4406 22.5324 72.3677 22.214 72.2218 21.9555C72.0759 21.6906 71.8825 21.492 71.6415 21.3596C71.4006 21.2272 71.1406 21.161 70.8615 21.161C70.5825 21.161 70.3225 21.2272 70.0815 21.3596C69.8469 21.492 69.6598 21.6906 69.5203 21.9555C69.3808 22.214 69.311 22.5324 69.311 22.9107C69.311 23.4719 69.4537 23.907 69.7391 24.216C70.0308 24.5186 70.3954 24.67 70.833 24.67Z" fill="white"/>
<path d="M75.7099 21.0759C75.8938 20.8363 76.1443 20.6345 76.4614 20.4705C76.7785 20.3066 77.1368 20.2246 77.5363 20.2246C77.9929 20.2246 78.4083 20.3381 78.7824 20.5651C79.1629 20.7858 79.461 21.0979 79.6766 21.5015C79.8922 21.905 80 22.3685 80 22.8918C80 23.4152 79.8922 23.8849 79.6766 24.3011C79.461 24.7109 79.1629 25.0325 78.7824 25.2658C78.4083 25.4928 77.9929 25.6063 77.5363 25.6063C77.1368 25.6063 76.7817 25.5275 76.4709 25.3699C76.1602 25.2059 75.9065 25.0041 75.7099 24.7645V27.9992H74.6255V20.3098H75.7099V21.0759ZM78.8966 22.8918C78.8966 22.5324 78.8205 22.2234 78.6683 21.9649C78.5224 21.7001 78.3258 21.5015 78.0785 21.3691C77.8375 21.2303 77.5775 21.161 77.2985 21.161C77.0258 21.161 76.7658 21.2303 76.5185 21.3691C76.2775 21.5078 76.0809 21.7096 75.9287 21.9744C75.7829 22.2392 75.7099 22.5513 75.7099 22.9107C75.7099 23.2701 75.7829 23.5854 75.9287 23.8566C76.0809 24.1214 76.2775 24.3232 76.5185 24.4619C76.7658 24.6006 77.0258 24.67 77.2985 24.67C77.5775 24.67 77.8375 24.6006 78.0785 24.4619C78.3258 24.3168 78.5224 24.1088 78.6683 23.8376C78.8205 23.5665 78.8966 23.2512 78.8966 22.8918Z" fill="white"/>
</svg>
