<svg width="32" height="32" viewBox="0 0 32 32" fill="none" xmlns="http://www.w3.org/2000/svg">
<path fill-rule="evenodd" clip-rule="evenodd" d="M16.0001 1.66675C12.1663 1.66675 9.0801 4.76926 9.0801 8.58675C9.0801 12.3246 12.0262 15.368 15.7398 15.4929C15.7812 15.4942 15.8227 15.4931 15.864 15.4893C15.9536 15.4812 16.0496 15.482 16.1139 15.4885C16.1581 15.4929 16.2026 15.4943 16.247 15.4929C19.9614 15.368 22.9045 12.3248 22.9201 8.59092L22.9201 8.58675C22.9201 4.7678 19.819 1.66675 16.0001 1.66675ZM11.0801 8.58675C11.0801 5.8709 13.2739 3.66675 16.0001 3.66675C18.7138 3.66675 20.919 5.87126 20.9201 8.58471C20.908 11.2309 18.8413 13.3747 16.2361 13.4918C16.0785 13.4803 15.9114 13.4809 15.7533 13.4919C13.1455 13.3761 11.0801 11.2308 11.0801 8.58675Z" fill="#666666"/>
<path fill-rule="evenodd" clip-rule="evenodd" d="M23.4487 18.5818C21.4226 17.2286 18.8009 16.5834 16.23 16.5834C13.6587 16.5834 11.0319 17.2288 8.99404 18.58L8.99036 18.5824C7.1699 19.8011 6.12665 21.5033 6.12665 23.3317C6.12665 25.1605 7.17026 26.8598 8.99174 28.072C11.0239 29.4312 13.6484 30.0801 16.22 30.0801C18.7921 30.0801 21.4171 29.431 23.4494 28.0712C25.2699 26.8525 26.3133 25.1502 26.3133 23.3217C26.3133 21.4932 25.2699 19.794 23.4487 18.5818ZM8.12665 23.3317C8.12665 22.3239 8.69623 21.1867 10.1011 20.2456C11.743 19.1576 13.9621 18.5834 16.23 18.5834C18.499 18.5834 20.7107 19.1582 22.3379 20.245L22.3394 20.246C23.744 21.1804 24.3133 22.3141 24.3133 23.3217C24.3133 24.33 23.7432 25.4677 22.337 26.4091C20.7027 27.5026 18.4878 28.0801 16.22 28.0801C13.9521 28.0801 11.7371 27.5025 10.1027 26.409L10.1006 26.4075C8.69599 25.4731 8.12665 24.3393 8.12665 23.3317Z" fill="#666666"/>
</svg>
